HIERARCHY
ROOT Hips
{
	OFFSET 0.00000 0.00000 0.00000
	CHANNELS 6 Xposition Yposition Zposition Zrotation Yrotation Xrotation 
	JOINT LHipJoint
	{
		OFFSET 0 0 0
		CHANNELS 3 Zrotation Yrotation Xrotation
		JOINT LeftUpLeg
		{
			OFFSET 1.28858 -1.83292 1.03970
			CHANNELS 3 Zrotation Yrotation Xrotation
			JOINT LeftLeg
			{
				OFFSET 2.47846 -6.80952 0.00000
				CHANNELS 3 Zrotation Yrotation Xrotation
				JOINT LeftFoot
				{
					OFFSET 2.75274 -7.56311 0.00000
					CHANNELS 3 Zrotation Yrotation Xrotation
					JOINT LeftToeBase
					{
						OFFSET 0.12848 -0.35301 1.68223
						CHANNELS 3 Zrotation Yrotation Xrotation
						End Site
						{
							OFFSET 0.00000 -0.00000 0.87311
						}
					}
				}
			}
		}
	}
	JOINT RHipJoint
	{
		OFFSET 0 0 0
		CHANNELS 3 Zrotation Yrotation Xrotation
		JOINT RightUpLeg
		{
			OFFSET -1.31183 -1.83292 1.03970
			CHANNELS 3 Zrotation Yrotation Xrotation
			JOINT RightLeg
			{
				OFFSET -2.44740 -6.72417 0.00000
				CHANNELS 3 Zrotation Yrotation Xrotation
				JOINT RightFoot
				{
					OFFSET -2.67343 -7.34519 0.00000
					CHANNELS 3 Zrotation Yrotation Xrotation
					JOINT RightToeBase
					{
						OFFSET -0.16914 -0.46471 1.77626
						CHANNELS 3 Zrotation Yrotation Xrotation
						End Site
						{
							OFFSET -0.00000 -0.00000 0.92777
						}
					}
				}
			}
		}
	}
	JOINT LowerBack
	{
		OFFSET 0 0 0
		CHANNELS 3 Zrotation Yrotation Xrotation
		JOINT Spine
		{
			OFFSET 0.01249 2.14252 0.03842
			CHANNELS 3 Zrotation Yrotation Xrotation
			JOINT Spine1
			{
				OFFSET -0.02957 2.14199 -0.03751
				CHANNELS 3 Zrotation Yrotation Xrotation
				JOINT Neck
				{
					OFFSET 0 0 0
					CHANNELS 3 Zrotation Yrotation Xrotation
					JOINT Neck1
					{
						OFFSET -0.01678 1.65709 -0.05476
						CHANNELS 3 Zrotation Yrotation Xrotation
						JOINT Head
						{
							OFFSET 0.07912 1.58331 -0.11843
							CHANNELS 3 Zrotation Yrotation Xrotation
							End Site
							{
								OFFSET 0.03298 1.73940 -0.04271
							}
						}
					}
				}
				JOINT LeftShoulder
				{
					OFFSET 0 0 0
					CHANNELS 3 Zrotation Yrotation Xrotation
					JOINT LeftArm
					{
						OFFSET 3.39556 1.16496 0.08673
						CHANNELS 3 Zrotation Yrotation Xrotation
						JOINT LeftForeArm
						{
							OFFSET 5.23910 -0.00000 -0.00000
							CHANNELS 3 Zrotation Yrotation Xrotation
							JOINT LeftHand
							{
								OFFSET 3.31467 -0.00000 0.00000
								CHANNELS 3 Zrotation Yrotation Xrotation
								JOINT LeftFingerBase
								{
									OFFSET 0 0 0
									CHANNELS 3 Zrotation Yrotation Xrotation
									JOINT LeftHandIndex1
									{
										OFFSET 0.96590 -0.00000 0.00000
										CHANNELS 3 Zrotation Yrotation Xrotation
										End Site
										{
											OFFSET 0.77873 -0.00000 0.00000
										}
									}
								}
								JOINT LThumb
								{
									OFFSET 0 0 0
									CHANNELS 3 Zrotation Yrotation Xrotation
									End Site
									{
										OFFSET 0.79062 -0.00000 0.79062
									}
								}
							}
						}
					}
				}
				JOINT RightShoulder
				{
					OFFSET 0 0 0
					CHANNELS 3 Zrotation Yrotation Xrotation
					JOINT RightArm
					{
						OFFSET -3.27193 1.31331 0.33940
						CHANNELS 3 Zrotation Yrotation Xrotation
						JOINT RightForeArm
						{
							OFFSET -5.30252 -0.00000 0.00000
							CHANNELS 3 Zrotation Yrotation Xrotation
							JOINT RightHand
							{
								OFFSET -3.67875 -0.00000 0.00000
								CHANNELS 3 Zrotation Yrotation Xrotation
								JOINT RightFingerBase
								{
									OFFSET 0 0 0
									CHANNELS 3 Zrotation Yrotation Xrotation
									JOINT RightHandIndex1
									{
										OFFSET -0.59481 -0.00000 0.00000
										CHANNELS 3 Zrotation Yrotation Xrotation
										End Site
										{
											OFFSET -0.47955 -0.00000 0.00000
										}
									}
								}
								JOINT RThumb
								{
									OFFSET 0 0 0
									CHANNELS 3 Zrotation Yrotation Xrotation
									End Site
									{
										OFFSET -0.48687 -0.00000 0.48687
									}
								}
							}
						}
					}
				}
			}
		}
	}
}
MOTION
Frames: 16
Frame Time: 0.0606061
0.00 0.00 0.00 0 0 0 0 0 0 -21 0 0 0 0 0 0 0 0 0 0 0 0 0 0 21 0 0 0 0 0 0 0 0 0 0 0 0 0 0 0 0 0 0 0 0 0 0 -16 0 0 21 0 0 11 0 0 0 -8 0 0 0 0 0 0 0 0 0 0 0 0 0 0 0 0 0 0 0 0 8 0 0 0 0 0 0 0 0 0 0 0 0 0 0 0 0 0
0.00 0.00 0.00 -0.4531 5.8736 8.5712 0.0000 0.0000 0.0000 -14.8693 -6.8880 -17.5729 3.4897 11.4484 33.8076 -1.1638 -22.4371 -5.0390 1.3534 7.3645 20.7999 0.0000 0.0000 0.0000 20.2259 2.4995 -19.3651 -2.1985 -9.2678 26.6367 -1.3091 -3.1163 -22.9359 -1.8719 8.5939 -24.5330 4.2403 1.9129 2.3316 -0.5515 2.5872 3.6944 -2.9352 1.4167 2.7150 -3.8057 -7.2595 -0.5736 5.4929 -10.3913 16.6121 1.7919 -4.9348 5.5922 0.0000 -0.0000 0.0000 -77.0980 5.1117 35.0445 15.9062 -25.3933 -3.6056 -0.0000 0.0000 -4.1162 6.2944 -7.5036 -0.8252 -7.1250 0.0000 -0.0000 -14.8773 22.4936 8.3305 0.0000 -0.0000 0.0000 82.2591 -6.2359 23.5414 -31.9528 42.5095 -12.7089 0.0000 0.0000 17.1492 0.2706 -20.3084 -0.0939 7.1250 -0.0000 -0.0000 27.5311 -48.1941 -2.3356
0.00 0.00 0.00 -0.9897 3.5875 7.0089 0.0000 0.0000 0.0000 -12.9723 -3.9071 -15.4953 1.5266 7.8013 22.1123 -0.5115 -14.2134 -1.9018 1.9606 8.7835 25.1204 0.0000 0.0000 0.0000 25.6995 2.5628 -6.5315 -0.3449 -3.7735 10.4402 -0.9015 -7.5444 -22.1938 -0.3875 3.9974 -11.0692 1.9095 1.8641 -0.1872 -2.3636 2.5166 2.7734 -3.4298 1.3410 3.1484 -2.5015 -1.0775 3.9375 4.0691 -1.9528 17.6499 1.6266 -0.8841 4.7073 0.0000 -0.0000 0.0000 -79.6815 -4.2584 32.1211 15.9372 -25.4354 -3.6189 -0.0000 0.0000 -9.9735 14.6140 -11.6788 -3.0213 -7.1250 0.0000 -0.0000 -8.7713 18.0039 5.6981 0.0000 -0.0000 0.0000 85.3771 -11.9807 25.1222 -20.0828 30.7419 -5.5736 0.0000 0.0000 8.5641 4.2850 -22.0413 -1.6106 7.1250 -0.0000 -0.0000 32.0204 -49.1231 -3.5925
0.00 0.00 0.00 -3.3140 5.6654 9.7606 0.0000 0.0000 0.0000 -9.8362 -12.0013 -27.1997 6.9494 15.2892 48.6828 -1.1712 -18.7539 6.1723 3.6272 11.6471 34.4946 0.0000 0.0000 0.0000 23.8003 7.0956 -23.8275 -2.6862 -10.1688 29.5252 -2.7666 1.4531 -31.1261 -0.8930 6.0232 -16.8519 2.7917 0.8162 4.8029 -0.2832 1.1801 4.2420 -1.8925 0.6636 1.7365 -1.4071 -1.6365 -6.6461 1.0421 -2.2160 20.0595 0.3954 -1.0593 7.2584 0.0000 0.0000 0.0000 -74.3411 -5.7934 37.0673 29.2603 -40.2509 -10.9285 -0.0000 0.0000 -7.8763 16.3332 -15.5212 -4.4839 -7.1250 0.0000 -0.0000 -7.6070 13.9407 5.6008 0.0000 0.0000 0.0000 74.8436 -7.8976 29.9406 -26.7202 37.9111 -9.3267 0.0000 0.0000 7.0635 -9.0177 -20.9984 3.2549 7.1250 -0.0000 -0.0000 19.4079 -50.1891 -2.5672
0.00 0.00 0.00 -6.0481 1.5335 10.9947 0.0000 0.0000 0.0000 -5.6552 -13.4206 -33.2539 2.8358 10.4244 30.3621 0.1810 0.4422 7.8903 6.0040 14.4322 44.9977 0.0000 0.0000 0.0000 25.1607 5.5714 -13.6682 -1.9187 -8.6945 24.8444 -1.8404 1.7981 -25.1618 -2.3238 9.5102 -27.4048 2.5670 3.0664 4.2690 -1.5716 4.1638 4.2824 -3.1334 2.1770 2.3255 -0.2308 -2.7163 -6.5513 4.0960 -4.6289 24.0983 0.9921 -1.7748 8.6782 0.0000 -0.0000 0.0000 -68.9209 -9.3019 36.5406 23.8316 -34.9857 -7.6098 -0.0000 0.0000 -8.5744 23.2937 -14.3189 -6.0779 -7.1250 0.0000 -0.0000 -2.8451 14.4627 2.0469 0.0000 -0.0000 0.0000 77.9265 -2.8134 29.1200 -30.0136 40.9051 -11.4186 0.0000 0.0000 6.7794 -11.5525 -16.1191 3.2481 7.1250 -0.0000 -0.0000 15.1624 -45.8464 -0.3242
0.00 0.00 0.00 -2.9389 -2.9171 5.9691 0.0000 0.0000 0.0000 -12.3116 -10.4567 -24.5905 4.2589 12.4971 37.5142 -1.1757 -21.9911 -4.1455 1.1913 6.9261 19.4966 0.0000 0.0000 0.0000 20.8172 4.6928 -16.1924 -5.3824 -13.8019 42.4497 -1.0879 6.3374 -18.6222 -1.2578 7.1096 -20.0406 -2.8675 0.5915 2.4585 -2.3514 0.7734 2.7904 -0.8144 0.3590 1.4807 -0.9601 0.4020 3.0064 3.4036 -0.0953 23.7253 1.2592 0.0992 6.7281 -0.0000 0.0000 0.0000 -69.9994 -8.7057 31.9047 51.0736 -53.4194 -27.0339 -0.0000 0.0000 -12.4899 38.4491 -22.3256 -16.7839 -7.1250 0.0000 -0.0000 5.8323 2.4340 -5.6088 -0.0000 0.0000 0.0000 80.5511 -16.5698 33.6701 -25.8624 37.0725 -8.8046 0.0000 0.0000 6.2767 -11.5842 -12.7515 2.5906 7.1250 -0.0000 -0.0000 14.1309 -42.5439 0.8754
0.00 0.00 0.00 0.4973 2.2936 7.0654 0.0000 0.0000 0.0000 -9.5955 -17.6598 -22.9130 8.5474 16.5075 54.5115 -0.7546 -15.4587 8.9796 4.2810 12.5252 37.6162 0.0000 0.0000 0.0000 23.2479 3.7691 -20.4357 -3.2403 -11.0742 32.5306 -2.2272 0.6548 -28.0733 -1.1265 6.7416 -18.9521 3.1117 0.5740 4.6271 -0.1175 0.8649 3.8143 -1.8932 0.4997 1.3788 4.1420 -2.2217 2.8394 -6.0047 -2.0613 21.4454 -2.6944 -1.0576 5.8807 -0.0000 0.0000 0.0000 -76.8740 -0.4765 30.2696 75.0120 -59.1339 -47.0578 -0.0000 0.0000 -4.6676 60.4086 -33.8274 -44.4300 -7.1250 0.0000 -0.0000 14.3945 -22.2708 -19.2294 -0.0000 0.0000 0.0000 77.4155 -12.7665 32.0114 -37.5011 46.5177 -16.6027 0.0000 0.0000 9.6262 -13.0037 -13.2263 3.0246 7.1250 -0.0000 -0.0000 13.0088 -43.1590 0.6019
0.00 0.00 0.00 -0.3014 2.9728 8.5859 0.0000 0.0000 0.0000 -7.5382 -14.9672 -29.8081 6.9370 15.2786 48.6355 -0.9593 -17.4015 2.6717 3.1555 10.9427 32.0868 0.0000 0.0000 0.0000 25.5333 4.6925 -12.3729 -1.7389 -8.2996 23.6278 -3.0729 1.1958 -32.9195 -1.6938 8.1969 -23.3138 6.0294 0.8646 3.8390 0.8918 1.2944 3.4109 -2.4887 0.7562 1.4829 4.4803 -2.4885 1.9528 -7.7486 -2.1757 20.9680 -3.3150 -1.2073 5.8295 -0.0000 -0.0000 0.0000 -77.8777 6.6362 22.9365 93.8738 -59.9432 -63.3541 -0.0000 0.0000 -2.6688 62.0968 -34.9786 -47.2706 -7.1250 0.0000 -0.0000 14.7829 -24.7752 -20.0879 -0.0000 -0.0000 0.0000 73.1455 -7.6906 33.5301 -38.0362 46.8624 -16.9920 0.0000 0.0000 10.2614 -15.3659 -12.5773 3.4245 7.1250 -0.0000 -0.0000 10.7570 -42.7521 0.6042
0.00 0.00 0.00 -0.4100 2.4689 9.8909 0.0000 0.0000 0.0000 -9.8666 -11.3242 -31.9401 4.0947 12.2854 36.7491 -0.8296 -15.9838 4.0132 2.8302 10.4149 30.3312 0.0000 0.0000 0.0000 24.0733 3.3273 -8.1515 -1.0344 -6.4688 18.1508 -2.5487 1.8687 -29.7342 -2.8959 10.5246 -30.6928 8.1649 1.4864 3.7299 1.5430 2.1532 3.4276 -3.0139 1.2255 1.7087 5.0533 -2.9112 0.9481 -9.3999 -2.5192 21.0335 -3.9747 -1.4542 5.9477 -0.0000 0.0000 0.0000 -78.5001 12.1993 13.5228 111.6616 -58.1506 -78.6430 -0.0000 0.0000 -3.6161 63.5828 -34.4947 -48.7432 -7.1250 0.0000 -0.0000 15.7284 -25.4288 -21.5204 -0.0000 0.0000 0.0000 70.0166 -4.7097 32.5597 -41.2655 48.8020 -19.3861 0.0000 0.0000 8.4757 -16.0060 -12.9693 3.6836 7.1250 -0.0000 -0.0000 10.2798 -43.2163 0.4577
0.00 0.00 0.00 -0.2013 -1.3012 11.4554 0.0000 0.0000 0.0000 -15.0538 -11.9926 -28.1508 2.5443 9.9179 28.7114 0.1028 -2.6821 7.6613 2.2181 9.3063 26.7582 0.0000 0.0000 0.0000 16.8066 3.2672 -9.7028 -1.6989 -8.2086 23.3494 -0.6655 3.6640 -14.6039 -2.1432 9.1581 -26.2911 9.8559 2.7222 3.3994 2.4193 3.7520 3.6807 -3.0158 2.0751 2.4091 7.2269 -3.4318 1.6866 -12.9440 -2.6962 21.1606 -5.4974 -1.5883 5.6992 0.0000 0.0000 0.0000 -75.1567 17.7015 -4.7499 128.0462 -53.7538 -92.2577 -0.0000 0.0000 -8.7972 64.3212 -32.1707 -47.9171 -7.1250 0.0000 -0.0000 17.0292 -23.5236 -23.1559 0.0000 0.0000 0.0000 64.8105 -0.7329 30.9737 -45.6484 51.0822 -22.7421 0.0000 0.0000 8.1378 -18.0393 -13.4434 4.3299 7.1250 -0.0000 -0.0000 8.5645 -43.9233 0.2294
0.00 0.00 0.00 1.5845 -5.2288 11.3393 0.0000 0.0000 0.0000 -21.9220 -11.2892 -24.2086 2.5427 9.9152 28.7026 -0.1944 -9.1628 -1.7945 1.5474 7.8518 22.2648 0.0000 0.0000 0.0000 9.4197 6.7121 -18.9647 -4.8855 -13.2537 40.3257 -0.2132 -4.0672 -11.1882 -1.7418 8.3062 -23.6480 8.0758 3.3433 4.2116 2.6380 4.5774 4.3312 -1.8386 2.4567 2.5624 0.6273 -2.8075 0.7717 -5.2981 -2.7270 24.8570 -2.0024 -1.6223 7.3903 0.0000 0.0000 0.0000 -67.5927 17.1928 -17.4228 132.5018 -51.9353 -95.8100 -0.0000 0.0000 -15.6587 59.7026 -27.6728 -38.4793 -7.1250 0.0000 -0.0000 16.2142 -14.5605 -20.4837 0.0000 0.0000 0.0000 62.1277 1.8930 29.9816 -45.4232 50.9741 -22.5670 0.0000 0.0000 8.2225 -17.3780 -14.5884 4.5071 7.1250 -0.0000 -0.0000 9.4314 -45.0232 -0.0054
0.00 0.00 0.00 2.8486 5.1463 9.2137 0.0000 0.0000 0.0000 -20.9303 -8.2812 -26.7613 4.1685 12.3813 37.0946 1.0065 -2.5950 20.0537 7.6837 15.8816 51.4151 0.0000 0.0000 0.0000 13.9376 3.9639 -18.6683 -1.3439 -7.3395 20.7252 -1.3526 -0.5283 -22.1889 -1.4334 7.5699 -21.4151 5.9209 0.7125 5.6447 3.5614 1.1199 5.2015 0.3244 0.6770 2.2657 -6.1993 -3.6790 -0.7702 3.0954 -5.1643 26.1991 1.7304 -2.6761 8.5026 0.0000 0.0000 0.0000 -47.3376 3.0516 -22.7083 141.9540 -46.8687 -103.0008 -0.0000 0.0000 -13.6822 53.2308 -30.8767 -34.4800 -7.1250 0.0000 -0.0000 11.7945 -14.1672 -14.5911 0.0000 0.0000 0.0000 66.5545 -2.0687 25.0630 -44.5597 50.5510 -21.8983 0.0000 0.0000 6.1720 -15.3310 -13.7581 3.7304 7.1250 -0.0000 -0.0000 11.0746 -43.9425 0.2928
0.00 0.00 0.00 -0.7407 8.5033 6.5252 0.0000 0.0000 0.0000 -9.6163 -10.8803 -37.7586 7.7167 15.9069 51.5357 -0.2874 -11.2740 10.6962 4.8042 13.1599 39.9700 0.0000 0.0000 0.0000 21.5236 8.4563 -13.2691 -1.6742 -8.1517 23.1757 -3.1562 2.9410 -32.9485 -1.7429 8.3088 -23.6559 8.4454 0.7251 5.4746 3.3705 1.2578 4.6434 -1.2787 0.8009 1.8680 -4.6992 -3.7820 -1.3845 1.8972 -5.1321 27.4606 1.0583 -2.6161 8.9786 -0.0000 0.0000 0.0000 -44.5714 1.5087 -18.7711 147.0870 -43.2631 -106.6376 -0.0000 -0.0000 1.4305 58.5094 -35.6669 -43.5865 -7.1250 0.0000 -0.0000 12.7257 -22.9023 -16.9826 -0.0000 0.0000 0.0000 65.2857 -3.7187 26.1710 -39.8216 47.9638 -18.3066 0.0000 0.0000 10.5751 -14.8970 -11.4683 3.0277 7.1250 -0.0000 -0.0000 10.9178 -41.5842 0.9323
0.00 0.00 0.00 -0.9163 6.9652 7.0757 0.0000 0.0000 0.0000 -14.1060 -10.1571 -34.4716 6.5291 14.9222 47.0699 -0.8486 -18.1497 -2.3572 1.6671 8.1351 23.1253 0.0000 0.0000 0.0000 16.8067 11.8907 -12.7247 -3.9899 -12.1469 36.2537 -2.4886 -1.5234 -30.4216 -3.2783 11.1325 -32.7279 4.9622 1.1985 4.4779 2.0729 1.7450 3.5517 -0.7025 0.9450 1.2345 -4.1551 -3.6040 -3.1501 2.4163 -5.0235 26.8078 1.1151 -2.4691 9.0627 -0.0000 0.0000 0.0000 -44.3286 8.0023 -25.8770 149.3030 -41.4834 -108.1314 -0.0000 0.0000 -3.0598 63.3255 -33.5600 -47.7357 -7.1250 0.0000 -0.0000 15.9749 -24.2247 -21.7268 -0.0000 0.0000 0.0000 63.6429 -11.8092 18.4731 -43.1468 49.8276 -20.8129 0.0000 0.0000 12.6148 -22.6314 -12.1167 5.0012 7.1250 -0.0000 -0.0000 4.1711 -43.0355 0.2026
0.00 0.00 0.00 2.2366 5.3334 6.4913 0.0000 0.0000 0.0000 -22.4232 -5.4645 -8.3500 1.7889 8.4117 23.9717 -2.1923 -25.1713 7.9142 7.0721 15.3923 49.1463 0.0000 0.0000 0.0000 14.8026 2.9679 -31.3632 -3.8977 -12.0230 35.8133 -1.0863 3.6576 -18.8195 -1.5830 7.9373 -22.5239 -0.7289 -1.5391 3.7001 -1.0441 -2.0407 4.2722 -0.6307 -1.0209 2.3027 -3.0998 -0.8335 -1.8270 2.3179 -1.3749 26.9737 1.2162 -0.7260 8.7222 0.0000 0.0000 0.0000 -44.8033 1.0037 -21.7321 134.2161 -51.1468 -97.1524 -0.0000 -0.0000 1.5287 60.3797 -34.4348 -44.8444 -7.1250 0.0000 -0.0000 14.1427 -22.9093 -18.9575 0.0000 0.0000 0.0000 81.5947 -25.9780 10.6089 -50.7880 53.3084 -26.8048 0.0000 0.0000 5.0573 -25.2609 -11.7038 5.4676 7.1250 -0.0000 -0.0000 1.7379 -42.8750 0.0912
0.00 0.00 0.00 -1.1361 6.4885 5.1822 0.0000 0.0000 0.0000 -12.0893 -10.4493 -20.3741 8.5790 16.5290 54.6225 0.3207 -8.2295 16.7075 5.9724 14.4015 44.8707 0.0000 0.0000 0.0000 22.8797 8.8089 -19.0333 -3.3808 -11.2874 33.2553 -2.2178 3.3354 -27.3454 -0.8407 5.8486 -16.3457 2.8602 -1.2385 4.0645 -0.7006 -1.5640 3.7891 -2.2800 -0.7095 1.5225 -3.1460 -0.7290 -2.0568 1.9316 -1.1063 28.0095 1.1208 -0.6369 9.1226 0.0000 0.0000 0.0000 -53.3846 -0.5493 -17.3595 129.3970 -53.2358 -93.3435 -0.0000 -0.0000 0.4939 66.4611 -32.7597 -51.1647 -7.1250 0.0000 -0.0000 17.9145 -26.0152 -24.7868 0.0000 0.0000 0.0000 82.0876 -24.8423 17.5933 -41.9578 49.1880 -19.9086 0.0000 0.0000 6.5940 -27.4042 -13.1410 6.7223 7.1250 -0.0000 -0.0000 -0.0615 -44.7133 -0.0004
